<svg xmlns="http://www.w3.org/2000/svg" width="512" height="512" viewBox="0 0 512 512" version="1.1">
	<path d="M 486 57.500 L 486 115 460.500 115 L 435 115 435 76.500 L 435 38 428.500 38 L 422 38 422 44.500 L 422 51 416 51 L 410 51 410 83 L 410 115 403.500 115 L 397 115 397 76.500 L 397 38 390.500 38 L 384 38 384 44.500 L 384 51 377.500 51 L 371 51 371 83 L 371 115 364.500 115 L 358 115 358 108.500 L 358 102 339 102 L 320 102 320 108.500 L 320 115 326.500 115 L 333 115 333 121.500 L 333 128 326.500 128 L 320 128 320 147 L 320 166 313.500 166 L 307 166 307 172.500 L 307 179 313.500 179 L 320 179 320 185.500 L 320 192 326.500 192 L 333 192 333 198.500 L 333 205 326.500 205 L 320 205 320 217.500 L 320 230 326.500 230 L 333 230 333 236.500 L 333 243 339.500 243 L 346 243 346 249.500 L 346 256 352 256 L 358 256 358 262.500 L 358 269 345.500 269 L 333 269 333 275.500 L 333 282 345.500 282 L 358 282 358 288 L 358 294 345.500 294 L 333 294 333 300.500 L 333 307 326.500 307 L 320 307 320 313.500 L 320 320 307 320 L 294 320 294 294.500 L 294 269 288 269 L 282 269 282 249.500 L 282 230 275.500 230 L 269 230 269 224 L 269 218 262.500 218 L 256 218 256 192 L 256 166 249.500 166 L 243 166 243 192 L 243 218 236.500 218 L 230 218 230 192 L 230 166 224 166 L 218 166 218 198 L 218 230 211.500 230 L 205 230 205 262 L 205 294 192 294 L 179 294 179 300.500 L 179 307 172.500 307 L 166 307 166 313.500 L 166 320 160 320 L 154 320 154 313.500 L 154 307 147.500 307 L 141 307 141 300.500 L 141 294 134.500 294 L 128 294 128 281.500 L 128 269 121.500 269 L 115 269 115 307.500 L 115 346 108.500 346 L 102 346 102 339.500 L 102 333 89.500 333 L 77 333 77 307.500 L 77 282 64 282 L 51 282 51 224 L 51 166 44.500 166 L 38 166 38 224 L 38 282 32 282 L 26 282 26 211.500 L 26 141 19.500 141 L 13 141 13 217.500 L 13 294 6.500 294 L 0 294 0 403 L 0 512 255.941 512 C 430.747 512, 512.084 511.673, 512.520 510.968 C 512.870 510.401, 512.828 395.201, 512.425 254.968 L 511.694 -0 498.847 -0 L 486 0 486 57.500 M 333 160 L 333 179 339.500 179 L 346 179 346 160 L 346 141 339.500 141 L 333 141 333 160 M 435 198.500 L 435 205 441.500 205 L 448 205 448 198.500 L 448 192 441.500 192 L 435 192 435 198.500 M 346 211.500 L 346 218 339.500 218 L 333 218 333 224 L 333 230 345.500 230 L 358 230 358 217.500 L 358 205 352 205 L 346 205 346 211.500 M 435 224 L 435 230 441.500 230 L 448 230 448 224 L 448 218 441.500 218 L 435 218 435 224 M 461 224 L 461 230 467.500 230 L 474 230 474 224 L 474 218 467.500 218 L 461 218 461 224 M 397 269 L 397 282 422.500 282 L 448 282 448 275.500 L 448 269 435 269 L 422 269 422 262.500 L 422 256 409.500 256 L 397 256 397 269 M 0.483 403 C 0.483 463.225, 0.603 487.862, 0.750 457.750 C 0.897 427.637, 0.897 378.362, 0.750 348.250 C 0.603 318.137, 0.483 342.775, 0.483 403 M 51 300.500 L 51 307 57.500 307 L 64 307 64 300.500 L 64 294 57.500 294 L 51 294 51 300.500 M 179 313.500 L 179 320 172.500 320 L 166 320 166 326.500 L 166 333 160 333 L 154 333 154 345.500 L 154 358 179.500 358 L 205 358 205 332.500 L 205 307 192 307 L 179 307 179 313.500 M 346 313.500 L 346 320 339.500 320 L 333 320 333 326.500 L 333 333 345.500 333 L 358 333 358 320 L 358 307 352 307 L 346 307 346 313.500 M 294 339.500 L 294 346 300.500 346 L 307 346 307 352 L 307 358 313.500 358 L 320 358 320 352 L 320 346 313.500 346 L 307 346 307 339.500 L 307 333 300.500 333 L 294 333 294 339.500 M 77 352 L 77 358 70.500 358 L 64 358 64 364.500 L 64 371 77 371 L 90 371 90 364.500 L 90 358 96 358 L 102 358 102 352 L 102 346 89.500 346 L 77 346 77 352 M 333 352 L 333 358 339.500 358 L 346 358 346 352 L 346 346 339.500 346 L 333 346 333 352 M 333 396.500 L 333 422 339.500 422 L 346 422 346 435 L 346 448 352 448 L 358 448 358 409.500 L 358 371 345.500 371 L 333 371 333 396.500 M 90 403 L 90 422 96 422 L 102 422 102 403 L 102 384 96 384 L 90 384 90 403 M 64 403.500 L 64 410 70.500 410 L 77 410 77 403.500 L 77 397 70.500 397 L 64 397 64 403.500 M 307 403.500 L 307 410 300.500 410 L 294 410 294 416 L 294 422 307 422 L 320 422 320 409.500 L 320 397 313.500 397 L 307 397 307 403.500 M 294 441.500 L 294 448 300.500 448 L 307 448 307 441.500 L 307 435 300.500 435 L 294 435 294 441.500" stroke="none" fill="black" fill-rule="evenodd"/>
</svg>